<?xml version="1.0" encoding="UTF-8" standalone="no"?>
<!DOCTYPE svg PUBLIC "-//W3C//DTD SVG 1.1//EN" "http://www.w3.org/Graphics/SVG/1.1/DTD/svg11.dtd">
<svg version="1.1" xmlns="http://www.w3.org/2000/svg" xmlns:xlink="http://www.w3.org/1999/xlink" preserveAspectRatio="xMidYMid meet" viewBox="0 0 110 140" width="110" height="140"><defs><path d="M9.1 9.21L110 9.21L110 104.96L9.1 104.96L9.1 9.21Z" id="a5sv74UlSP"></path><path d="M9.25 100.23L69.99 100.23L69.99 140L9.25 140L9.25 100.23Z" id="c74neUtX2"></path><path d="M61.35 126.88L12.69 126.88L12.69 13.13L97.31 13.13L97.31 96.25L110 96.25L110 0L53.78 0L0 0L0 140L61.35 140L61.35 126.88ZM69.81 103.86L69.81 140L110 103.86L69.81 103.86Z" id="bdK7mbtlT"></path><path d="M17.92 22.35L61.16 22.35L61.16 26.41L17.92 26.41L17.92 22.35Z" id="f7gGR2Hcu3"></path><path d="M17.92 110.07L30.1 110.07L30.1 114.13L17.92 114.13L17.92 110.07Z" id="b5f738K8N"></path><path d="M63.73 22.35L78.57 22.35L78.57 26.41L63.73 26.41L63.73 22.35Z" id="a4lwuXY9C"></path><path d="M23.12 96.7L35.31 96.7L35.31 100.76L23.12 100.76L23.12 96.7Z" id="f245d6YEY8"></path><path d="M23.12 29.74L55.61 29.74L55.61 33.8L23.12 33.8L23.12 29.74Z" id="b5wq34OZk6"></path><path d="M23.12 90.9L49.76 90.9L49.76 94.96L23.12 94.96L23.12 90.9Z" id="c6FIBFEaA"></path><path d="M37.64 34.88L45.52 34.88L45.52 38.94L37.64 38.94L37.64 34.88Z" id="h9dgyFMSIn"></path><path d="M23.12 80.82L31.01 80.82L31.01 84.88L23.12 84.88L23.12 80.82Z" id="aeB9gLAhI"></path><path d="M47.95 34.88L67.33 34.88L67.33 38.94L47.95 38.94L47.95 34.88Z" id="b1wfvxevsg"></path><path d="M27.84 73.4L40.03 73.4L40.03 77.46L27.84 77.46L27.84 73.4Z" id="c2aBXsLG4W"></path><path d="M37.64 40.55L54.38 40.55L54.38 44.61L37.64 44.61L37.64 40.55Z" id="aEhL1ghzS"></path><path d="M27.84 67.7L58.42 67.7L58.42 71.76L27.84 71.76L27.84 67.7Z" id="lvKq3Avk4"></path><path d="M23.12 47.68L42.5 47.68L42.5 51.74L23.12 51.74L23.12 47.68Z" id="c1ZKu4SSzz"></path><path d="M23.12 62.12L76.39 62.12L76.39 66.18L23.12 66.18L23.12 62.12Z" id="h2Qxf9KtCx"></path></defs><g><g><g><use xlink:href="#a5sv74UlSP" opacity="1" fill="#ffffff" fill-opacity="1"></use></g><g><use xlink:href="#c74neUtX2" opacity="1" fill="#ffffff" fill-opacity="1"></use></g><g><use xlink:href="#bdK7mbtlT" opacity="1" fill="#1b1b1b" fill-opacity="1"></use></g><g><use xlink:href="#f7gGR2Hcu3" opacity="1" fill="#3b3b3b" fill-opacity="1"></use></g><g><use xlink:href="#b5f738K8N" opacity="1" fill="#3b3b3b" fill-opacity="1"></use></g><g><use xlink:href="#a4lwuXY9C" opacity="1" fill="#3b3b3b" fill-opacity="1"></use></g><g><use xlink:href="#f245d6YEY8" opacity="1" fill="#3b3b3b" fill-opacity="1"></use></g><g><use xlink:href="#b5wq34OZk6" opacity="1" fill="#3b3b3b" fill-opacity="1"></use></g><g><use xlink:href="#c6FIBFEaA" opacity="1" fill="#3b3b3b" fill-opacity="1"></use></g><g><use xlink:href="#h9dgyFMSIn" opacity="1" fill="#3b3b3b" fill-opacity="1"></use></g><g><use xlink:href="#aeB9gLAhI" opacity="1" fill="#3b3b3b" fill-opacity="1"></use></g><g><use xlink:href="#b1wfvxevsg" opacity="1" fill="#3b3b3b" fill-opacity="1"></use></g><g><use xlink:href="#c2aBXsLG4W" opacity="1" fill="#3b3b3b" fill-opacity="1"></use></g><g><use xlink:href="#aEhL1ghzS" opacity="1" fill="#3b3b3b" fill-opacity="1"></use></g><g><use xlink:href="#lvKq3Avk4" opacity="1" fill="#3b3b3b" fill-opacity="1"></use></g><g><use xlink:href="#c1ZKu4SSzz" opacity="1" fill="#3b3b3b" fill-opacity="1"></use></g><g><use xlink:href="#h2Qxf9KtCx" opacity="1" fill="#3b3b3b" fill-opacity="1"></use></g></g></g></svg>