<?xml version="1.0" encoding="UTF-8" standalone="no"?>
<!DOCTYPE svg PUBLIC "-//W3C//DTD SVG 1.1//EN" "http://www.w3.org/Graphics/SVG/1.1/DTD/svg11.dtd">
<svg version="1.1" xmlns="http://www.w3.org/2000/svg" xmlns:xlink="http://www.w3.org/1999/xlink" preserveAspectRatio="xMidYMid meet" viewBox="0 0 450 207" width="450" height="207"><defs><path d="M435.94 0C443.7 0 450 6.3 450 14.06C450 21.01 450 27.8 450 34.75C450 42.51 443.7 48.81 435.94 48.81C348.75 48.81 101.25 48.81 14.06 48.81C6.3 48.81 0 42.51 0 34.75C0 27.8 0 21.01 0 14.06C0 6.3 6.3 0 14.06 0C101.25 0 348.75 0 435.94 0Z" id="dEgCZa6aK"></path><clipPath id="clipb43neOGTIf"><use xlink:href="#dEgCZa6aK" opacity="1"></use></clipPath><path d="M263.07 17.21C263.07 20.52 260.33 23.2 256.95 23.2C253.57 23.2 250.83 20.52 250.83 17.21C250.83 13.91 253.57 11.23 256.95 11.23C260.33 11.23 263.07 13.91 263.07 17.21Z" id="a67guKa4g"></path><clipPath id="clipag1p6vmDF"><use xlink:href="#a67guKa4g" opacity="1"></use></clipPath><path d="M423.9 13.49C427.87 13.49 431.09 16.72 431.09 20.69C431.09 22.13 431.09 19.25 431.09 20.69C431.09 24.67 427.87 27.89 423.9 27.89C409.9 27.89 375.12 27.89 361.13 27.89C357.16 27.89 353.93 24.67 353.93 20.69C353.93 19.25 353.93 22.13 353.93 20.69C353.93 16.72 357.16 13.49 361.13 13.49C375.12 13.49 409.9 13.49 423.9 13.49Z" id="a2Iso944qh"></path><path d="M244.14 28.38C245.78 28.38 247.11 29.7 247.11 31.35C247.11 31.94 247.11 30.75 247.11 31.35C247.11 32.99 245.78 34.32 244.14 34.32C200.9 34.32 74.16 34.32 30.93 34.32C29.29 34.32 27.96 32.99 27.96 31.35C27.96 30.75 27.96 31.94 27.96 31.35C27.96 29.7 29.29 28.38 30.93 28.38C74.16 28.38 200.9 28.38 244.14 28.38Z" id="e2rpNqg9Mp"></path><path d="M279.11 17.21C279.11 20.52 276.36 23.2 272.99 23.2C269.61 23.2 266.86 20.52 266.86 17.21C266.86 13.91 269.61 11.23 272.99 11.23C276.36 11.23 279.11 13.91 279.11 17.21Z" id="c3c7I6HiVs"></path><clipPath id="clipdRvRWCSYG"><use xlink:href="#c3c7I6HiVs" opacity="1"></use></clipPath><path d="M295.7 17.21C295.7 20.52 292.96 23.2 289.58 23.2C286.2 23.2 283.46 20.52 283.46 17.21C283.46 13.91 286.2 11.23 289.58 11.23C292.96 11.23 295.7 13.91 295.7 17.21Z" id="b19uXogQgA"></path><clipPath id="clipbzW4XzGJF"><use xlink:href="#b19uXogQgA" opacity="1"></use></clipPath><path d="M333.15 10.74L334.8 10.74L334.8 38.07L333.15 38.07L333.15 10.74Z" id="d1WUutvINU"></path><path d="M435.94 52.14C443.7 52.14 450 58.43 450 66.2C450 73.15 450 79.94 450 86.88C450 94.65 443.7 100.95 435.94 100.95C348.75 100.95 101.25 100.95 14.06 100.95C6.3 100.95 0 94.65 0 86.88C0 79.94 0 73.15 0 66.2C0 58.43 6.3 52.14 14.06 52.14C101.25 52.14 348.75 52.14 435.94 52.14Z" id="e6jx7pyTE"></path><clipPath id="clipc1YWX3cgo3"><use xlink:href="#e6jx7pyTE" opacity="1"></use></clipPath><path d="M263.07 69.35C263.07 72.65 260.33 75.33 256.95 75.33C253.57 75.33 250.83 72.65 250.83 69.35C250.83 66.05 253.57 63.37 256.95 63.37C260.33 63.37 263.07 66.05 263.07 69.35Z" id="b17SOSkQlx"></path><clipPath id="clipbngKjuUBY"><use xlink:href="#b17SOSkQlx" opacity="1"></use></clipPath><path d="M423.9 65.63C427.87 65.63 431.09 68.85 431.09 72.83C431.09 74.27 431.09 71.39 431.09 72.83C431.09 76.8 427.87 80.03 423.9 80.03C409.9 80.03 375.12 80.03 361.13 80.03C357.16 80.03 353.93 76.8 353.93 72.83C353.93 71.39 353.93 74.27 353.93 72.83C353.93 68.85 357.16 65.63 361.13 65.63C375.12 65.63 409.9 65.63 423.9 65.63Z" id="a1P65wNyGP"></path><path d="M244.14 80.51C245.78 80.51 247.11 81.84 247.11 83.48C247.11 84.08 247.11 82.89 247.11 83.48C247.11 85.12 245.78 86.45 244.14 86.45C200.9 86.45 74.16 86.45 30.93 86.45C29.29 86.45 27.96 85.12 27.96 83.48C27.96 82.89 27.96 84.08 27.96 83.48C27.96 81.84 29.29 80.51 30.93 80.51C74.16 80.51 200.9 80.51 244.14 80.51Z" id="b2thqXxMj3"></path><path d="M279.11 69.35C279.11 72.65 276.36 75.33 272.99 75.33C269.61 75.33 266.86 72.65 266.86 69.35C266.86 66.05 269.61 63.37 272.99 63.37C276.36 63.37 279.11 66.05 279.11 69.35Z" id="dUvWkHTH4"></path><clipPath id="clipg2Z778vUvh"><use xlink:href="#dUvWkHTH4" opacity="1"></use></clipPath><path d="M295.7 69.35C295.7 72.65 292.96 75.33 289.58 75.33C286.2 75.33 283.46 72.65 283.46 69.35C283.46 66.05 286.2 63.37 289.58 63.37C292.96 63.37 295.7 66.05 295.7 69.35Z" id="b49NecYazg"></path><clipPath id="clipf6DY2fOr4C"><use xlink:href="#b49NecYazg" opacity="1"></use></clipPath><path d="M333.15 62.88L334.8 62.88L334.8 90.21L333.15 90.21L333.15 62.88Z" id="c4oaqLqhl"></path><path d="M435.94 158.19C443.7 158.19 450 164.49 450 172.25C450 179.2 450 185.99 450 192.94C450 200.7 443.7 207 435.94 207C348.75 207 101.25 207 14.06 207C6.3 207 0 200.7 0 192.94C0 185.99 0 179.2 0 172.25C0 164.49 6.3 158.19 14.06 158.19C101.25 158.19 348.75 158.19 435.94 158.19Z" id="b1NBvDw3k2"></path><clipPath id="clipj3mLNb2NeW"><use xlink:href="#b1NBvDw3k2" opacity="1"></use></clipPath><path d="M263.07 175.4C263.07 178.71 260.33 181.39 256.95 181.39C253.57 181.39 250.83 178.71 250.83 175.4C250.83 172.1 253.57 169.42 256.95 169.42C260.33 169.42 263.07 172.1 263.07 175.4Z" id="a3FrWVMUuE"></path><clipPath id="clipb2h5gKlkUu"><use xlink:href="#a3FrWVMUuE" opacity="1"></use></clipPath><path d="M423.9 171.69C427.87 171.69 431.09 174.91 431.09 178.88C431.09 180.32 431.09 177.44 431.09 178.88C431.09 182.86 427.87 186.08 423.9 186.08C409.9 186.08 375.12 186.08 361.13 186.08C357.16 186.08 353.93 182.86 353.93 178.88C353.93 177.44 353.93 180.32 353.93 178.88C353.93 174.91 357.16 171.69 361.13 171.69C375.12 171.69 409.9 171.69 423.9 171.69Z" id="d4UcopG0La"></path><path d="M244.14 186.57C245.78 186.57 247.11 187.9 247.11 189.54C247.11 190.13 247.11 188.94 247.11 189.54C247.11 191.18 245.78 192.51 244.14 192.51C200.9 192.51 74.16 192.51 30.93 192.51C29.29 192.51 27.96 191.18 27.96 189.54C27.96 188.94 27.96 190.13 27.96 189.54C27.96 187.9 29.29 186.57 30.93 186.57C74.16 186.57 200.9 186.57 244.14 186.57Z" id="e2sJpMR9qx"></path><path d="M279.11 175.4C279.11 178.71 276.36 181.39 272.99 181.39C269.61 181.39 266.86 178.71 266.86 175.4C266.86 172.1 269.61 169.42 272.99 169.42C276.36 169.42 279.11 172.1 279.11 175.4Z" id="aqo1k80k9"></path><clipPath id="clipbHcBQexjg"><use xlink:href="#aqo1k80k9" opacity="1"></use></clipPath><path d="M295.7 175.4C295.7 178.71 292.96 181.39 289.58 181.39C286.2 181.39 283.46 178.71 283.46 175.4C283.46 172.1 286.2 169.42 289.58 169.42C292.96 169.42 295.7 172.1 295.7 175.4Z" id="bf2byhGbT"></path><clipPath id="clipa1f8FyTP7L"><use xlink:href="#bf2byhGbT" opacity="1"></use></clipPath><path d="M333.15 168.93L334.8 168.93L334.8 196.26L333.15 196.26L333.15 168.93Z" id="azN2bBM2j"></path><path d="M435.94 105.21C443.7 105.21 450 111.51 450 119.28C450 126.22 450 133.01 450 139.96C450 147.73 443.7 154.02 435.94 154.02C348.75 154.02 101.25 154.02 14.06 154.02C6.3 154.02 0 147.73 0 139.96C0 133.01 0 126.22 0 119.28C0 111.51 6.3 105.21 14.06 105.21C101.25 105.21 348.75 105.21 435.94 105.21Z" id="c4pk1VkQQd"></path><clipPath id="clipawPumrILN"><use xlink:href="#c4pk1VkQQd" opacity="1"></use></clipPath><path d="M263.07 122.43C263.07 125.73 260.33 128.41 256.95 128.41C253.57 128.41 250.83 125.73 250.83 122.43C250.83 119.12 253.57 116.44 256.95 116.44C260.33 116.44 263.07 119.12 263.07 122.43Z" id="bra5r9153"></path><clipPath id="clipf74QLea50"><use xlink:href="#bra5r9153" opacity="1"></use></clipPath><path d="M423.9 118.71C427.87 118.71 431.09 121.93 431.09 125.9C431.09 127.34 431.09 124.47 431.09 125.9C431.09 129.88 427.87 133.1 423.9 133.1C409.9 133.1 375.12 133.1 361.13 133.1C357.16 133.1 353.93 129.88 353.93 125.9C353.93 124.47 353.93 127.34 353.93 125.9C353.93 121.93 357.16 118.71 361.13 118.71C375.12 118.71 409.9 118.71 423.9 118.71Z" id="a3x3Wfg2Eq"></path><path d="M244.14 133.59C245.78 133.59 247.11 134.92 247.11 136.56C247.11 137.15 247.11 135.96 247.11 136.56C247.11 138.2 245.78 139.53 244.14 139.53C200.9 139.53 74.16 139.53 30.93 139.53C29.29 139.53 27.96 138.2 27.96 136.56C27.96 135.96 27.96 137.15 27.96 136.56C27.96 134.92 29.29 133.59 30.93 133.59C74.16 133.59 200.9 133.59 244.14 133.59Z" id="d4zBa28uNs"></path><path d="M279.11 122.43C279.11 125.73 276.36 128.41 272.99 128.41C269.61 128.41 266.86 125.73 266.86 122.43C266.86 119.12 269.61 116.44 272.99 116.44C276.36 116.44 279.11 119.12 279.11 122.43Z" id="bb7xfzvVE"></path><clipPath id="clipbaqjFuGTT"><use xlink:href="#bb7xfzvVE" opacity="1"></use></clipPath><path d="M295.7 122.43C295.7 125.73 292.96 128.41 289.58 128.41C286.2 128.41 283.46 125.73 283.46 122.43C283.46 119.12 286.2 116.44 289.58 116.44C292.96 116.44 295.7 119.12 295.7 122.43Z" id="anJtyF90m"></path><clipPath id="clipaEgXFT70O"><use xlink:href="#anJtyF90m" opacity="1"></use></clipPath><path d="M333.15 115.95L334.8 115.95L334.8 143.28L333.15 143.28L333.15 115.95Z" id="a1rhX8TWVF"></path></defs><g><g><g><use xlink:href="#dEgCZa6aK" opacity="1" fill="#ffffff" fill-opacity="1"></use><g clip-path="url(#clipb43neOGTIf)"><use xlink:href="#dEgCZa6aK" opacity="1" fill-opacity="0" stroke="#323232" stroke-width="10" stroke-opacity="1"></use></g></g><g><use xlink:href="#a67guKa4g" opacity="1" fill="#00e649" fill-opacity="1"></use><g clip-path="url(#clipag1p6vmDF)"><use xlink:href="#a67guKa4g" opacity="1" fill-opacity="0" stroke="#0a0a0a" stroke-width="2" stroke-opacity="1"></use></g></g><g><use xlink:href="#a2Iso944qh" opacity="1" fill="#393939" fill-opacity="1"></use></g><g><use xlink:href="#e2rpNqg9Mp" opacity="1" fill="#393939" fill-opacity="1"></use></g><g><use xlink:href="#c3c7I6HiVs" opacity="1" fill="#00e649" fill-opacity="1"></use><g clip-path="url(#clipdRvRWCSYG)"><use xlink:href="#c3c7I6HiVs" opacity="1" fill-opacity="0" stroke="#0a0a0a" stroke-width="2" stroke-opacity="1"></use></g></g><g><use xlink:href="#b19uXogQgA" opacity="1" fill="#00e649" fill-opacity="1"></use><g clip-path="url(#clipbzW4XzGJF)"><use xlink:href="#b19uXogQgA" opacity="1" fill-opacity="0" stroke="#0a0a0a" stroke-width="2" stroke-opacity="1"></use></g></g><g><use xlink:href="#d1WUutvINU" opacity="1" fill="#292929" fill-opacity="1"></use></g><g><use xlink:href="#e6jx7pyTE" opacity="1" fill="#ffffff" fill-opacity="1"></use><g clip-path="url(#clipc1YWX3cgo3)"><use xlink:href="#e6jx7pyTE" opacity="1" fill-opacity="0" stroke="#323232" stroke-width="10" stroke-opacity="1"></use></g></g><g><use xlink:href="#b17SOSkQlx" opacity="1" fill="#00e649" fill-opacity="1"></use><g clip-path="url(#clipbngKjuUBY)"><use xlink:href="#b17SOSkQlx" opacity="1" fill-opacity="0" stroke="#0a0a0a" stroke-width="2" stroke-opacity="1"></use></g></g><g><use xlink:href="#a1P65wNyGP" opacity="1" fill="#393939" fill-opacity="1"></use></g><g><use xlink:href="#b2thqXxMj3" opacity="1" fill="#393939" fill-opacity="1"></use></g><g><use xlink:href="#dUvWkHTH4" opacity="1" fill="#00e649" fill-opacity="1"></use><g clip-path="url(#clipg2Z778vUvh)"><use xlink:href="#dUvWkHTH4" opacity="1" fill-opacity="0" stroke="#0a0a0a" stroke-width="2" stroke-opacity="1"></use></g></g><g><use xlink:href="#b49NecYazg" opacity="1" fill="#00e649" fill-opacity="1"></use><g clip-path="url(#clipf6DY2fOr4C)"><use xlink:href="#b49NecYazg" opacity="1" fill-opacity="0" stroke="#0a0a0a" stroke-width="2" stroke-opacity="1"></use></g></g><g><use xlink:href="#c4oaqLqhl" opacity="1" fill="#292929" fill-opacity="1"></use></g><g><use xlink:href="#b1NBvDw3k2" opacity="1" fill="#ffffff" fill-opacity="1"></use><g clip-path="url(#clipj3mLNb2NeW)"><use xlink:href="#b1NBvDw3k2" opacity="1" fill-opacity="0" stroke="#323232" stroke-width="10" stroke-opacity="1"></use></g></g><g><use xlink:href="#a3FrWVMUuE" opacity="1" fill="#00e649" fill-opacity="1"></use><g clip-path="url(#clipb2h5gKlkUu)"><use xlink:href="#a3FrWVMUuE" opacity="1" fill-opacity="0" stroke="#0a0a0a" stroke-width="2" stroke-opacity="1"></use></g></g><g><use xlink:href="#d4UcopG0La" opacity="1" fill="#393939" fill-opacity="1"></use></g><g><use xlink:href="#e2sJpMR9qx" opacity="1" fill="#393939" fill-opacity="1"></use></g><g><use xlink:href="#aqo1k80k9" opacity="1" fill="#00e649" fill-opacity="1"></use><g clip-path="url(#clipbHcBQexjg)"><use xlink:href="#aqo1k80k9" opacity="1" fill-opacity="0" stroke="#0a0a0a" stroke-width="2" stroke-opacity="1"></use></g></g><g><use xlink:href="#bf2byhGbT" opacity="1" fill="#00e649" fill-opacity="1"></use><g clip-path="url(#clipa1f8FyTP7L)"><use xlink:href="#bf2byhGbT" opacity="1" fill-opacity="0" stroke="#0a0a0a" stroke-width="2" stroke-opacity="1"></use></g></g><g><use xlink:href="#azN2bBM2j" opacity="1" fill="#292929" fill-opacity="1"></use></g><g><use xlink:href="#c4pk1VkQQd" opacity="1" fill="#ffffff" fill-opacity="1"></use><g clip-path="url(#clipawPumrILN)"><use xlink:href="#c4pk1VkQQd" opacity="1" fill-opacity="0" stroke="#323232" stroke-width="10" stroke-opacity="1"></use></g></g><g><use xlink:href="#bra5r9153" opacity="1" fill="#00e649" fill-opacity="1"></use><g clip-path="url(#clipf74QLea50)"><use xlink:href="#bra5r9153" opacity="1" fill-opacity="0" stroke="#0a0a0a" stroke-width="2" stroke-opacity="1"></use></g></g><g><use xlink:href="#a3x3Wfg2Eq" opacity="1" fill="#393939" fill-opacity="1"></use></g><g><use xlink:href="#d4zBa28uNs" opacity="1" fill="#393939" fill-opacity="1"></use></g><g><use xlink:href="#bb7xfzvVE" opacity="1" fill="#00e649" fill-opacity="1"></use><g clip-path="url(#clipbaqjFuGTT)"><use xlink:href="#bb7xfzvVE" opacity="1" fill-opacity="0" stroke="#0a0a0a" stroke-width="2" stroke-opacity="1"></use></g></g><g><use xlink:href="#anJtyF90m" opacity="1" fill="#00e649" fill-opacity="1"></use><g clip-path="url(#clipaEgXFT70O)"><use xlink:href="#anJtyF90m" opacity="1" fill-opacity="0" stroke="#0a0a0a" stroke-width="2" stroke-opacity="1"></use></g></g><g><use xlink:href="#a1rhX8TWVF" opacity="1" fill="#292929" fill-opacity="1"></use></g></g></g></svg>