<?xml version="1.0" encoding="UTF-8" standalone="no"?>
<!DOCTYPE svg PUBLIC "-//W3C//DTD SVG 1.1//EN" "http://www.w3.org/Graphics/SVG/1.1/DTD/svg11.dtd">
<svg version="1.1" xmlns="http://www.w3.org/2000/svg" xmlns:xlink="http://www.w3.org/1999/xlink" preserveAspectRatio="xMidYMid meet" viewBox="0 0 400 650" width="400" height="650"><defs><path d="M0 0L400 0L400 650L0 650L0 0Z" id="cF0jMIct"></path><clipPath id="clipb1j2FNEJ4A"><use xlink:href="#cF0jMIct" opacity="1"></use></clipPath><path d="M79.27 84.14C79.27 99.05 67.16 111.16 52.24 111.16C37.33 111.16 25.22 99.05 25.22 84.14C25.22 69.22 37.33 57.11 52.24 57.11C67.16 57.11 79.27 69.22 79.27 84.14Z" id="a1dhdg1G"></path><path d="M107.02 63.84L329.64 63.84L329.64 77.98L107.02 77.98L107.02 63.84Z" id="aqgKRjSs6"></path><path d="M107.02 87.5L186.79 87.5L186.79 111.16L107.02 111.16L107.02 87.5Z" id="ayQxtU67c"></path><path d="M0 551.6L400 551.6L400 561.12L0 561.12L0 551.6Z" id="blIsjaAQH"></path><path d="M0 568.34L400 568.34L400 577.86L0 577.86L0 568.34Z" id="d3sBCk0bd2"></path><path d="M0 598.08L400 598.08L400 607.6L0 607.6L0 598.08Z" id="dmh90ZNsg"></path><path d="M81.72 220.42L318.28 220.42L318.28 255.71L81.72 255.71L81.72 220.42Z" id="a4zyGCfT1c"></path><path d="M81.72 285.43L318.28 285.43L318.28 320.73L81.72 320.73L81.72 285.43Z" id="b10EOcazI0"></path><path d="M81.72 350.63L318.28 350.63L318.28 385.92L81.72 385.92L81.72 350.63Z" id="e7ImNV5Dlk"></path><path d="M235.26 483.27C235.26 502.73 219.46 518.53 200 518.53C180.54 518.53 164.74 502.73 164.74 483.27C164.74 463.81 180.54 448.01 200 448.01C219.46 448.01 235.26 463.81 235.26 483.27Z" id="cx28g4260"></path><path d="M0 173.97L400 173.97L400 176.43L0 176.43L0 173.97Z" id="i6ny6wxUTW"></path></defs><g><g><g><use xlink:href="#cF0jMIct" opacity="1" fill="#ffffff" fill-opacity="1"></use><g clip-path="url(#clipb1j2FNEJ4A)"><use xlink:href="#cF0jMIct" opacity="1" fill-opacity="0" stroke="#323232" stroke-width="8" stroke-opacity="1"></use></g></g><g><use xlink:href="#a1dhdg1G" opacity="1" fill="#323232" fill-opacity="1"></use></g><g><use xlink:href="#aqgKRjSs6" opacity="1" fill="#323232" fill-opacity="1"></use></g><g><use xlink:href="#ayQxtU67c" opacity="1" fill="#3e7bf0" fill-opacity="1"></use><g><use xlink:href="#ayQxtU67c" opacity="1" fill-opacity="0" stroke="#335c6e" stroke-width="1" stroke-opacity="1"></use></g></g><g><use xlink:href="#blIsjaAQH" opacity="1" fill="#505050" fill-opacity="1"></use></g><g><use xlink:href="#d3sBCk0bd2" opacity="1" fill="#505050" fill-opacity="1"></use></g><g><use xlink:href="#dmh90ZNsg" opacity="1" fill="#505050" fill-opacity="1"></use></g><g><use xlink:href="#a4zyGCfT1c" opacity="1" fill="#323232" fill-opacity="1"></use></g><g><use xlink:href="#b10EOcazI0" opacity="1" fill="#323232" fill-opacity="1"></use></g><g><use xlink:href="#e7ImNV5Dlk" opacity="1" fill="#323232" fill-opacity="1"></use></g><g><use xlink:href="#cx28g4260" opacity="1" fill="#ffffff" fill-opacity="1"></use><g><use xlink:href="#cx28g4260" opacity="1" fill-opacity="0" stroke="#323232" stroke-width="11" stroke-opacity="1"></use></g></g><g><use xlink:href="#i6ny6wxUTW" opacity="1" fill="#323232" fill-opacity="1"></use></g></g></g></svg>